<svg width="24" height="24" viewBox="0 0 24 24" fill="none" xmlns="http://www.w3.org/2000/svg">
<path d="M3 6L4.83663 14.8158C5.22306 16.6707 6.85785 18 8.75255 18H15.2474C17.1422 18 18.7769 16.6707 19.1634 14.8158L21 6" stroke="black" stroke-width="1.5" stroke-linecap="round"/>
<path d="M10.3996 8C9.75963 7.66667 9.68329 7.5 8.79961 7.5C7.91594 7.5 7.8396 7.66667 7.19958 8" stroke="black" stroke-width="1.5" stroke-linecap="round"/>
<path d="M16.7997 8C16.1597 7.66667 16.0834 7.5 15.1997 7.5C14.316 7.5 14.2397 7.66667 13.5997 8" stroke="black" stroke-width="1.5" stroke-linecap="round"/>
<path d="M3.99977 8C4.63978 8.33333 4.71613 8.5 5.5998 8.5C6.48347 8.5 6.55982 8.33333 7.19983 8" stroke="black" stroke-width="1.5" stroke-linecap="round"/>
<path d="M10.3999 8C11.0399 8.33333 11.1162 8.5 11.9999 8.5C12.8836 8.5 12.9599 8.33333 13.5999 8" stroke="black" stroke-width="1.5" stroke-linecap="round"/>
<path d="M16.7999 8C17.44 8.33333 17.5163 8.5 18.4 8.5C19.2836 8.5 19.36 8.33333 20 8" stroke="black" stroke-width="1.5" stroke-linecap="round"/>
</svg>
