<svg width="24" height="24" viewBox="0 0 24 24" fill="none" xmlns="http://www.w3.org/2000/svg">
<path d="M3 6L4.83663 14.8158C5.22306 16.6707 6.85785 18 8.75255 18H15.2474C17.1422 18 18.7769 16.6707 19.1634 14.8158L21 6" stroke="black" stroke-width="1.5" stroke-linecap="round"/>
<path d="M10.3996 8C9.75963 7.66667 9.68329 7.5 8.79961 7.5C7.91594 7.5 7.8396 7.66667 7.19958 8" stroke="black" stroke-width="1.5" stroke-linecap="round"/>
<path d="M16.7997 8C16.1597 7.66667 16.0834 7.5 15.1997 7.5C14.316 7.5 14.2397 7.66667 13.5997 8" stroke="black" stroke-width="1.5" stroke-linecap="round"/>
<path d="M3.99977 8C4.63978 8.33333 4.71613 8.5 5.5998 8.5C6.48347 8.5 6.55982 8.33333 7.19983 8" stroke="black" stroke-width="1.5" stroke-linecap="round"/>
<path d="M10.3999 8C11.0399 8.33333 11.1162 8.5 11.9999 8.5C12.8836 8.5 12.9599 8.33333 13.5999 8" stroke="black" stroke-width="1.5" stroke-linecap="round"/>
<path d="M16.7999 8C17.44 8.33333 17.5163 8.5 18.4 8.5C19.2836 8.5 19.36 8.33333 20 8" stroke="black" stroke-width="1.5" stroke-linecap="round"/>
<path d="M9.6242 16.077C9.00354 16.077 8.5252 15.93 8.1892 15.636C7.85787 15.342 7.68054 14.9337 7.6572 14.411H8.6792C8.72587 14.9663 9.02687 15.244 9.5822 15.244C10.1375 15.244 10.4152 15.0037 10.4152 14.523C10.4152 14.0423 10.1469 13.802 9.6102 13.802H9.2182V13.046H9.5822C10.0909 13.046 10.3452 12.8243 10.3452 12.381C10.3452 12.1943 10.2845 12.045 10.1632 11.933C10.0465 11.8163 9.8762 11.758 9.6522 11.758C9.41887 11.758 9.22987 11.8257 9.0852 11.961C8.94054 12.0917 8.8542 12.276 8.8262 12.514H7.8252C7.8532 12.0427 8.0282 11.66 8.3502 11.366C8.67687 11.072 9.11787 10.925 9.6732 10.925C10.2099 10.925 10.6345 11.051 10.9472 11.303C11.2599 11.555 11.4162 11.8817 11.4162 12.283C11.4162 12.8103 11.1409 13.172 10.5902 13.368C10.8889 13.4333 11.1245 13.5687 11.2972 13.774C11.4745 13.9747 11.5632 14.2313 11.5632 14.544C11.5632 15.0153 11.3905 15.3887 11.0452 15.664C10.7045 15.9393 10.2309 16.077 9.6242 16.077ZM14.0966 15.188C14.7826 15.188 15.1256 14.6583 15.1256 13.599V13.375C15.1256 12.8663 15.0369 12.4767 14.8596 12.206C14.6869 11.9353 14.4279 11.8 14.0826 11.8C13.3779 11.8 13.0256 12.325 13.0256 13.375V13.613C13.0256 14.663 13.3826 15.188 14.0966 15.188ZM14.0686 16.077C13.4012 16.077 12.8716 15.8577 12.4796 15.419C12.0876 14.9803 11.8916 14.3807 11.8916 13.62V13.382C11.8916 12.6213 12.0922 12.0217 12.4936 11.583C12.8949 11.1443 13.4222 10.925 14.0756 10.925C14.7336 10.925 15.2609 11.1397 15.6576 11.569C16.0542 11.9983 16.2526 12.5957 16.2526 13.361V13.592C16.2526 14.3573 16.0566 14.964 15.6646 15.412C15.2772 15.8553 14.7452 16.077 14.0686 16.077Z" fill="black"/>
</svg>
